<svg xmlns="http://www.w3.org/2000/svg" viewBox="0 0 120 120" fill="none">
  <defs>
    <linearGradient id="rrFaviconBg" x1="0" y1="0" x2="120" y2="120" gradientUnits="userSpaceOnUse">
      <stop offset="0%" stop-color="#2563eb"/>
      <stop offset="100%" stop-color="#0f172a"/>
    </linearGradient>
  </defs>
  <rect width="120" height="120" rx="26" fill="url(#rrFaviconBg)"/>
  <rect x="1" y="1" width="118" height="118" rx="25" stroke="#ffffff" stroke-opacity="0.2" stroke-width="2" fill="none"/>
  <path fill-rule="evenodd" clip-rule="evenodd"
        d="M32 26 H68 C82.36 26 94 36.75 94 50 C94 60.5 87.2 69.4 77.6 72.7 L94 94 H73 L58.4 74 H48 V94 H32 V26 Z M48 42 V58 H66 C70.4 58 74 54.4 74 50 C74 45.6 70.4 42 66 42 H48 Z"
        fill="#ffffff"/>
  <path d="M72 74 L89 94 H76 L63 74 H72 Z" fill="#38bdf8"/>
  <circle cx="86" cy="35" r="4" fill="#38bdf8"/>
</svg>